<?xml version="1.0" encoding="UTF-8"?>
<svg viewBox="0 0 399.00409 432.22641" xmlns="http://www.w3.org/2000/svg">
 <g transform="translate(-155.47 -349.08)">
  <path d="m173.41 714.4c14.338 14.607 41.604 3.9842 64.074 11.765 18.219 6.3088 26.889 47.494 48.08 40.016s57.119-26.888 80.963-20.296 53.551 51.282 72.75 29.456c16.306-18.537 24.104-64.742 64.888-60.087 40.909 4.6694 49.735 1.5445 44.245-48.913-3.185-29.27 22.2-53.578-12.144-76.305-53.554-35.439-138.73-13.393-190.33 21.276-59.092 39.698-194.07 81.137-172.52 103.09z" fill-opacity=".23529" fill-rule="evenodd"/>
  <path transform="matrix(1 0 0 1.1622 0 -158.65)" d="m497.32 591.87c0 75.863 35.791 95.42 35.791 130.61 0 19.515-35.398-24.073-55.259-14.207-18.42 9.1505-41.111 17.794-64.144 4.1653-13.717-8.1165 5.4103-21.328-21.11-21.328-21.154 0-53.393 13.096-73.563 15.917-18.337 2.5649-37.912-14.187-70.263-4.6393-20.119 5.9378-91.303 48.274-91.303 28.759 0-24.854 33.273-51.928 33.273-139.27 0-84.615 68.673-153.29 153.29-153.29s153.29 68.673 153.29 153.29z" fill="#dbdbe3" fill-opacity=".62745"/>
  <path transform="matrix(1 0 0 1.1622 0 -158.65)" d="m497.32 591.87c0 75.863 35.791 95.42 35.791 130.61 0 19.515-48.884 5.2781-68.744 15.144-18.42 9.1505-10.874 22.934-37.395 31.778-19.054 6.3537-44.46-22.614-70.98-22.614-21.154 0-60.197 24.416-78.534 16.655s-16.598-33.613-44.949-36.111c-21.159-1.8642-75.039 23.329-75.039 3.814 0-24.854 33.273-51.928 33.273-139.27 0-84.615 68.673-153.29 153.29-153.29s153.29 68.673 153.29 153.29z" fill="#dbdbe3" fill-opacity=".62745" stroke="#000" stroke-linecap="round" stroke-linejoin="round" stroke-width="3.7104"/>
  <path d="m293.5 439.04c-20.563 2e-5 -37.251 19.174-37.251 42.801s16.688 42.801 37.251 42.801c15.888 1e-5 29.46-11.461 34.811-27.564 5.3513 16.104 18.923 27.564 34.811 27.564 20.563 0 37.251-19.174 37.251-42.801s-16.688-42.801-37.251-42.801c-15.885 0-29.458 11.427-34.811 27.526-5.3535-16.099-18.926-27.526-34.811-27.526z" fill="#fff" stroke="#000" stroke-linecap="round" stroke-linejoin="round" stroke-width="4"/>
  <path transform="matrix(.10522 0 0 .10565 318.09 426.67)" d="m497.32 591.87a153.29 153.29 0 1 1 -306.58 0 153.29 153.29 0 1 1 306.58 0z"/>
  <path transform="matrix(.10522 0 0 .10565 266.9 426.67)" d="m497.32 591.87a153.29 153.29 0 1 1 -306.58 0 153.29 153.29 0 1 1 306.58 0z"/>
  <path d="m444.06 411.72c5.9025-2.08 35.598 37.205 41.012 78.489 3.6824 28.079 2.1213 71.418 6.364 96.167s40.915 88.99 26.163 88.388c-34.648-1.4142-56.752-57.149-48.841-136.86 8.9219-89.899-38.625-121.27-24.698-126.18z" fill-opacity=".11765" fill-rule="evenodd"/>
  <path d="m458.21 691.03c-8.0186 7.8555-22.627 45.255-30.406 28.284s-1.2867-47.191-7.0711-91.924c-4.3996-34.024-20.587-74.625-8.6777-68.439 11.868 6.1653 20.493 24.751 31.305 57.125 9.4528 28.304 24.456 65.542 14.849 74.953z" fill-opacity=".11765" fill-rule="evenodd"/>
  <path d="m342.94 700.42c-7.671 8.1953-26.443 17.954-35.941 16.107-12.511-2.4334-14.438-44.388-9.4142-71.66 4.9498-26.87 14.487-66.042 22.456-71.918 9.692-7.146 0.70204 26.773 9.7929 73.403 6.9562 35.681 20.592 46.071 13.107 54.069z" fill-opacity=".11765" fill-rule="evenodd"/>
  <path d="m240.42 677.6c-11.108-1.6205-21.615 1.1402-30.406 3.5355-12.297 3.3509-0.78114-15.154 15.556-47.376 12.356-24.369 15.255-49.484 22.42-56.317 8.5351-8.1399-2.3875 23.698-4.4142 54.625-1.8797 28.683 5.0358 46.728-3.1569 45.533z" fill-opacity=".11765" fill-rule="evenodd"/>
  <path d="m217.08 459.1c27.337-73.67 79.953-89.138 93.338-88.388 20.327 1.1392 14.724 30.624-24.749 41.012-40.231 10.588-82.972 86.136-68.589 47.376z" fill="#fff" fill-opacity=".62745" fill-rule="evenodd"/>
 </g>
</svg>
